<?xml version="1.0" encoding="utf-8"?>
<!-- Generator: Adobe Illustrator 25.4.1, SVG Export Plug-In . SVG Version: 6.00 Build 0)  -->
<svg version="1.1" id="Capa_1" xmlns="http://www.w3.org/2000/svg" xmlns:xlink="http://www.w3.org/1999/xlink" x="0px" y="0px"
	 viewBox="0 0 500 500" style="enable-background:new 0 0 500 500;" xml:space="preserve">
<style type="text/css">
	.st0{fill:#FFFFFF;}
</style>
<path d="M249.35,408.1c-87.46-0.36-157.44-71-157.13-158.62c0.31-87.92,71.19-158,159.39-157.58
	c87.17,0.42,156.5,71.84,156.17,160.9C407.47,338.22,335.82,408.46,249.35,408.1z M203.99,253c7.03,0,13.19,0,20.87,0
	c0,34.23,0,67.43,0,100.56c14.11,0,26.66,0,40.38,0c0-17.07,0-33.55,0-50.03c0-16.75,0-33.51,0-51.28c10.31,0,18.96,0,27.98,0
	c0.99-11.43,1.89-21.85,2.92-33.7c-10.8,0-20.44,0-30.81,0c0-7.64,0.17-13.96-0.04-20.26c-0.27-7.84,3.82-10.67,11.06-10.53
	c6.22,0.12,12.45,0.02,19.19,0.02c0-12.13,0-22.86,0-34.69c-10.99,0-21.46-0.25-31.92,0.05c-26.3,0.75-38.45,12.99-39.17,39.33
	c-0.23,8.34-0.04,16.7-0.04,25.6c-7.55,0.44-13.74,0.8-20.42,1.19C203.99,230.29,203.99,240.76,203.99,253z"/>
</svg>
