<?xml version="1.0" encoding="utf-8"?>
<!-- Generator: Adobe Illustrator 25.4.1, SVG Export Plug-In . SVG Version: 6.00 Build 0)  -->
<svg version="1.1" id="Capa_1" xmlns="http://www.w3.org/2000/svg" xmlns:xlink="http://www.w3.org/1999/xlink" x="0px" y="0px"
	 viewBox="0 0 500 500" style="enable-background:new 0 0 500 500;" xml:space="preserve">
<style type="text/css">
	.st0{fill:#FFFFFF;}
</style>
<g>
	<path d="M250.25,408.04c-86.66,0.23-157.8-70.34-158.13-156.87C91.78,163.89,162.49,92.2,249.16,91.96
		c88.15-0.24,158.68,70.03,158.73,158.16C407.94,337.88,338.13,407.81,250.25,408.04z M249.8,343.86c0-0.03,0-0.06,0-0.09
		c14.44,0,28.91,0.54,43.32-0.12c24.89-1.14,44.77-17.69,46.24-42.24c1.91-31.87,1.86-64.02,0.04-95.9
		c-1.34-23.47-18.62-40.13-42.03-41.46c-30.16-1.71-60.56-2.09-90.71-0.4c-28.71,1.6-46.06,21.34-46.76,50.07
		c-0.65,26.41-0.63,52.86-0.03,79.27c0.69,30.14,20.66,49.8,50.85,50.8C223.73,344.22,236.77,343.86,249.8,343.86z"/>
	<g>
		<path d="M324.51,213.61c-0.54-19.63-10.54-32.26-29.83-33.44c-29.46-1.79-59.19-1.71-88.67-0.02
			c-18.73,1.07-28.56,13.82-29.37,32.69c-0.58,13.37-0.11,26.78-0.1,40.17c0.01,13.74-0.5,27.51,0.13,41.23
			c0.9,19.75,12.05,31.94,31.65,32.66c27.43,1.01,54.95,1.16,82.38,0.17c21.53-0.77,33.25-12.94,33.84-34.15
			C325.27,266.51,325.23,240.04,324.51,213.61z M250.36,300.23c-26.13-0.15-46.59-20.91-46.47-47.14
			c0.12-25.35,21.09-46.57,46.11-46.66c26.11-0.1,47.59,21.68,47.24,47.9C296.91,279.6,275.69,300.38,250.36,300.23z"/>
		<path d="M249.52,223.04c-16.45,0.28-29.73,14.09-29.55,30.74c0.18,16.78,14.63,30.77,31.35,30.33
			c16.45-0.42,29.44-14.19,29.29-31.06C280.47,235.71,267.05,222.75,249.52,223.04z"/>
	</g>
	<circle class="st0" cx="298.98" cy="203.1" r="10.15"/>
</g>
</svg>
