<?xml version="1.0" encoding="utf-8"?>
<!-- Generator: Adobe Illustrator 25.4.1, SVG Export Plug-In . SVG Version: 6.00 Build 0)  -->
<svg version="1.1" id="Capa_1" xmlns="http://www.w3.org/2000/svg" xmlns:xlink="http://www.w3.org/1999/xlink" x="0px" y="0px"
	 viewBox="0 0 500 500" style="enable-background:new 0 0 500 500;" xml:space="preserve">
<style type="text/css">
	.st0{fill:#FFFFFF;}
</style>
<g>
	<path d="M371.07,148.29c-5.87-7.01-12.35-13.48-19.35-19.36c-27.59-23.19-63.32-37.09-102.56-36.98
		c-38.09,0.11-73.08,14.02-100.33,36.98c-7.21,6.08-13.86,12.8-19.9,20.05c-23.07,27.73-36.97,63.41-36.82,102.19
		c0.15,38.05,13.99,73,36.82,100.21c5.98,7.12,12.58,13.7,19.7,19.68c27.55,23.12,63.03,37.08,101.61,36.98
		c39-0.1,74.42-13.95,101.78-36.98c6.89-5.8,13.25-12.17,19.04-19.06c23.04-27.41,36.84-62.88,36.82-101.89
		C407.86,211.17,394.06,175.72,371.07,148.29z M233.77,258.65c-5.12-7.42-10.2-14.86-15.3-22.29
		c-9.71-14.15-19.43-28.29-29.15-42.43c-3.74-5.44-7.46-10.88-11.2-16.32c-0.09-0.13-0.16-0.26-0.32-0.51c0.4,0,0.65,0,0.89,0
		c13.8,0,27.59,0.01,41.39-0.02c0.63,0,0.96,0.21,1.3,0.7c10.3,15.03,20.61,30.05,30.92,45.07c1.78,2.6,3.56,5.2,5.34,7.79
		c0.15,0.22,0.32,0.43,0.55,0.74c0.27-0.24,0.53-0.42,0.73-0.65c2.74-3.13,5.48-6.26,8.2-9.41c3.94-4.57,7.87-9.15,11.8-13.73
		c6.26-7.28,12.52-14.55,18.78-21.83c2.36-2.74,4.7-5.5,7.08-8.22c0.2-0.23,0.57-0.43,0.87-0.43c3.54-0.03,7.07-0.02,10.61-0.01
		c0.43,0,0.86,0.08,1.47,0.13c-17.95,20.89-35.8,41.67-53.76,62.58c19.49,28.4,38.97,56.78,58.55,85.31
		c-1.06,0.06-1.96,0.15-2.86,0.15c-13.11,0.03-26.23,0.03-39.34,0.09c-0.94,0-1.18-0.64-1.55-1.18c-3.71-5.39-7.38-10.8-11.09-16.19
		c-7.65-11.12-15.31-22.23-22.96-33.34c-1.55-2.26-3.11-4.51-4.74-6.88c-0.94,1.06-1.82,2.04-2.68,3.04
		c-4.97,5.77-9.93,11.54-14.9,17.32c-4.17,4.85-8.33,9.69-12.49,14.54c-4.45,5.18-8.89,10.35-13.34,15.53
		c-1.86,2.17-3.73,4.33-5.57,6.51c-0.38,0.45-0.76,0.66-1.37,0.65c-2.72-0.04-5.44,0-8.16-0.03c-1.13-0.01-2.26-0.12-3.55-0.19
		c0.53-0.65,0.96-1.2,1.41-1.72c5.83-6.78,11.67-13.56,17.5-20.35c5.53-6.43,11.05-12.88,16.58-19.31
		c4.77-5.55,9.55-11.08,14.32-16.63c1.97-2.29,3.91-4.6,5.92-6.85C234.17,259.71,234.23,259.32,233.77,258.65z"/>
	<path d="M271.75,296.43c4.25,6.07,8.53,12.12,12.72,18.24c0.72,1.05,1.52,1.43,2.68,1.37c0.08,0,0.16,0,0.24,0
		c5.61-0.01,11.21-0.01,16.82-0.02c0.26,0,0.51-0.03,0.9-0.05c-0.28-0.42-0.48-0.73-0.69-1.03c-12.52-17.91-25.05-35.83-37.57-53.74
		c-12.52-17.92-25.03-35.84-37.55-53.76c-4.66-6.68-9.33-13.36-14.01-20.02c-0.2-0.29-0.6-0.63-0.91-0.63
		c-6.34-0.04-12.68-0.03-19.18-0.03c0.23,0.36,0.39,0.63,0.57,0.89c7.5,10.76,15,21.51,22.51,32.27
		c11.83,16.94,23.65,33.89,35.48,50.83C259.75,279.32,265.76,287.87,271.75,296.43z"/>
</g>
</svg>
